<svg width="180" height="180" viewBox="0 0 180 180" fill="none" xmlns="http://www.w3.org/2000/svg">
<rect width="180" height="180" fill="black"/>
<path d="M46.0591 91.5078C33.445 91.5078 23.1758 81.2386 23.1758 68.6245V22.0146H44.9732V68.6245C44.9732 69.2252 45.4584 69.7103 46.0591 69.7103H85.715V91.5078H46.0591Z" fill="white"/>
<path d="M118.637 92.0846C108.795 92.0846 99.3113 87.9261 92.6346 80.6718C85.9579 73.4176 82.5849 63.622 83.3935 53.7687C84.7912 36.7535 98.6759 22.8687 115.691 21.471C116.673 21.3901 117.666 21.3555 118.637 21.3555C128.444 21.3555 137.904 25.4909 144.593 32.7105C151.362 40.0225 154.666 49.5293 153.903 59.5097C152.575 76.6982 138.621 90.6638 121.421 91.9806C120.497 92.0499 119.561 92.0846 118.637 92.0846ZM118.637 43.1529C117.724 43.1529 116.789 43.2453 115.864 43.4302C110.736 44.4698 106.531 48.5705 105.399 53.6416C104.498 57.6846 105.48 61.8662 108.09 65.1121C110.724 68.3927 114.559 70.2756 118.637 70.2756C119.619 70.2756 120.612 70.1601 121.605 69.9406C126.723 68.797 130.87 64.5577 131.921 59.3711C132.741 55.3281 131.759 51.3544 129.16 48.1778C126.538 44.9781 122.703 43.1414 118.637 43.1414V43.1529Z" fill="white"/>
<path d="M58.5459 160.934C48.7041 160.934 39.2205 156.776 32.5438 149.522C25.8555 142.279 22.4941 132.472 23.2911 122.63C24.6888 105.615 38.5736 91.73 55.5888 90.3323C56.5706 90.2515 57.5641 90.2168 58.5344 90.2168C68.3415 90.2168 77.8021 94.3522 84.4903 101.572C91.2595 108.884 94.5631 118.391 93.7892 128.371C92.4608 145.559 78.5067 159.525 61.3067 160.842C60.3826 160.911 59.4469 160.946 58.5228 160.946L58.5459 160.934ZM58.5459 112.014C57.6334 112.014 56.6977 112.107 55.7736 112.291C50.6448 113.331 46.4401 117.432 45.308 122.503C44.407 126.546 45.3889 130.728 47.9995 133.973C50.6332 137.254 54.4683 139.137 58.5344 139.137C59.5162 139.137 60.5097 139.021 61.5031 138.802C66.6203 137.658 70.7673 133.419 71.8185 128.232C72.6386 124.189 71.6567 120.216 69.0577 117.039C66.4355 113.839 62.6005 112.003 58.5344 112.003L58.5459 112.014Z" fill="white"/>
<path d="M129.263 161L121.963 147.046C121.12 145.51 120.38 144.147 119.733 142.934C118.394 140.427 116.996 137.84 116.337 137.1C116.095 137.066 115.575 137.008 114.455 137.008C114.05 137.008 113.623 137.008 113.161 137.02V160.989H91.3633V91.4956H113.161V115.384C113.681 115.384 114.166 115.395 114.616 115.395C115.61 115.395 116.106 115.349 116.337 115.315C116.984 114.564 118.313 112.092 119.606 109.701C120.288 108.441 121.062 106.998 121.974 105.346L129.263 91.3916H153.856L141.173 115.719C140.815 116.354 140.376 117.209 139.879 118.202C138.724 120.501 137.28 123.366 135.374 126.173C137.326 129.049 138.793 132.006 139.972 134.363C140.422 135.275 140.826 136.095 141.208 136.765L153.879 160.954H129.263V161Z" fill="white"/>
</svg>
